<?xml version="1.0" encoding="UTF-8" standalone="no"?>
<!-- Created with Inkscape (http://www.inkscape.org/) -->

<svg
   xmlns:dc="http://purl.org/dc/elements/1.1/"
   xmlns:cc="http://creativecommons.org/ns#"
   xmlns:rdf="http://www.w3.org/1999/02/22-rdf-syntax-ns#"
   xmlns:svg="http://www.w3.org/2000/svg"
   xmlns="http://www.w3.org/2000/svg"
   xmlns:sodipodi="http://sodipodi.sourceforge.net/DTD/sodipodi-0.dtd"
   xmlns:inkscape="http://www.inkscape.org/namespaces/inkscape"
   width="80mm"
   height="72mm"
   viewBox="0 0 80 71.999997"
   version="1.1"
   id="svg4545"
   inkscape:version="0.92.1 r15371"
   sodipodi:docname="logo.svg">
  <defs
     id="defs4539" />
  <sodipodi:namedview
     id="base"
     pagecolor="#ffffff"
     bordercolor="#666666"
     borderopacity="1.0"
     inkscape:pageopacity="0.0"
     inkscape:pageshadow="2"
     inkscape:zoom="1.7653681"
     inkscape:cx="141.2181"
     inkscape:cy="139.25413"
     inkscape:document-units="mm"
     inkscape:current-layer="layer3"
     showgrid="false"
     inkscape:window-width="1440"
     inkscape:window-height="864"
     inkscape:window-x="0"
     inkscape:window-y="0"
     inkscape:window-maximized="0"
     showguides="false"
     inkscape:guide-bbox="true">
    <sodipodi:guide
       position="30.804755,22.551767"
       orientation="0,1"
       id="guide5128"
       inkscape:locked="false" />
  </sodipodi:namedview>
  <metadata
     id="metadata4542">
    <rdf:RDF>
      <cc:Work
         rdf:about="">
        <dc:format>image/svg+xml</dc:format>
        <dc:type
           rdf:resource="http://purl.org/dc/dcmitype/StillImage" />
        <dc:title></dc:title>
      </cc:Work>
    </rdf:RDF>
  </metadata>
  <g
     inkscape:label="SquareBG"
     inkscape:groupmode="layer"
     id="layer1"
     transform="translate(0,-225)"
     style="display:none"
     sodipodi:insensitive="true">
    <rect
       style="display:inline;opacity:0.99800002;fill:#ef2959;fill-opacity:1;stroke:none;stroke-width:0.81632656;stroke-miterlimit:4;stroke-dasharray:none;stroke-opacity:1"
       id="rect5094"
       width="40"
       height="40"
       x="5"
       y="252"
       rx="6.3386955"
       ry="7.0714927" />
  </g>
  <g
     inkscape:groupmode="layer"
     id="layer2"
     inkscape:label="Heart1"
     style="display:none"
     sodipodi:insensitive="true"
     transform="translate(0,22)">
    <path
       style="opacity:0.99800002;fill:#a40000;fill-opacity:1;stroke:#6c2929;stroke-width:0.5;stroke-miterlimit:4;stroke-dasharray:none;stroke-opacity:1"
       d="M 0.00617656,16.784496 C -0.37121954,0.88826948 16.641243,-1.4829429 25.001345,11.622606 33.174222,-2.0445938 50.280508,0.88632705 49.996507,16.784496 49.730592,31.670556 40.643228,37.120766 25.001345,47.08999 7.0022567,38.262697 0.35676776,31.551715 0.00617656,16.784496 Z"
       id="rect5125"
       inkscape:connector-curvature="0"
       sodipodi:nodetypes="scscs" />
  </g>
  <g
     inkscape:groupmode="layer"
     id="layer4"
     inkscape:label="Heart2"
     transform="translate(0,22)">
    <g
       id="layer1-1"
       transform="matrix(0.109375,0,0,0.109375,4.7260579,-18.305872)"
       style="fill:#729fcf">
      <path
         style="fill:#729fcf"
         id="path2417"
         d="M 297.29747,550.86823 C 283.52243,535.43191 249.1268,505.33855 220.86277,483.99412 137.11867,420.75228 125.72108,411.5999 91.719238,380.29088 29.03471,322.57071 2.413622,264.58086 2.5048478,185.95124 2.5493594,147.56739 5.1656152,132.77929 15.914734,110.15398 34.151433,71.768267 61.014996,43.244667 95.360052,25.799457 119.68545,13.443675 131.6827,7.9542046 172.30448,7.7296236 c 42.49329,-0.234834 51.43863,4.7197234 76.43471,18.4518354 30.42451,16.714318 61.7399,52.435708 68.21323,77.810591 l 3.9981,15.6724 9.85963,-21.584508 c 55.71617,-121.972928 233.59836,-120.148052 295.50229,3.031588 19.63767,39.07605 21.79364,122.51317 4.38012,169.51287 -22.71527,61.30937 -65.38001,108.05053 -164.00634,179.67658 -64.68082,46.97364 -137.88474,118.04586 -142.98067,128.02803 -5.91548,11.58753 -0.28216,1.8159 -26.40808,-27.46078 z"
         inkscape:connector-curvature="0" />
      <g
         id="g2221"
         transform="translate(129.28571,-64.285714)"
         style="fill:#729fcf" />
    </g>
  </g>
  <g
     inkscape:groupmode="layer"
     id="layer3"
     inkscape:label="StatsMark"
     style="display:inline"
     transform="translate(0,22)">
    <path
       style="fill:none;stroke:#fdffff;stroke-width:4.19999981;stroke-linecap:butt;stroke-linejoin:round;stroke-miterlimit:4;stroke-dasharray:none;stroke-dashoffset:0;stroke-opacity:1"
       d="M 2.8833333,21.272415 H 9.7619046 L 17.619047,6.7486113 23.452382,19.40694 33.491666,-4.0174617 45.47619,38.058131 51.071426,21.034321 h 8.09524 l 6.904761,-32.2619 3.214284,34.404759 h 7.830956"
       id="path5149"
       inkscape:connector-curvature="0"
       sodipodi:nodetypes="ccccccccccc" />
  </g>
</svg>
